# xmcd
#
# Track frame offsets: 
#        150
#        26994
#        54123
#        75517
#        100934
#        120118
#        134191
#        164855
#        187382
#        231207
#
# Disc length: 3458 seconds
#
# Revision: 1
# Processed by: cddbd v1.5.2PL0 Copyright (c) Steve Scherf et al.
# Submitted via: ExactAudioCopy v1.0b1
#
DISCID=8a0d800a
DTITLE=Audience - Alive and  Kickin' and Screamin' and Shoutin'
DYEAR=1900
DGENRE=
TTITLE0=You're not smiling
TTITLE1=Zig zag and swirl
TTITLE2=Leave it unsaid
TTITLE3=Nothin' you do
TTITLE4=I want to be your man
TTITLE5=Call me responsible
TTITLE6=The bells
TTITLE7=I had a Dream
TTITLE8=The house on the hill
TTITLE9=Morning dew
EXTD=
EXTT0=
EXTT1=
EXTT2=
EXTT3=
EXTT4=
EXTT5=
EXTT6=
EXTT7=
EXTT8=
EXTT9=
PLAYORDER=
